<?xml version="1.0" standalone="no"?>
<!DOCTYPE svg PUBLIC "-//W3C//DTD SVG 20010904//EN"
 "http://www.w3.org/TR/2001/REC-SVG-20010904/DTD/svg10.dtd">
<svg version="1.0" xmlns="http://www.w3.org/2000/svg"
 width="512.000000pt" height="512.000000pt" viewBox="0 0 512.000000 512.000000"
 preserveAspectRatio="xMidYMid meet">

<g transform="translate(0.000000,512.000000) scale(0.100000,-0.100000)"
fill="#000000" stroke="none">
<path d="M1465 5032 c-49 -4 -62 -15 -75 -61 -8 -30 -17 -39 -57 -55 -239 -93
-404 -304 -430 -546 -7 -70 2 -63 -133 -105 -96 -30 -251 -101 -322 -146 -52
-34 -58 -47 -117 -264 -108 -395 -219 -1118 -247 -1620 l-7 -111 53 -46 c94
-83 218 -131 363 -143 68 -6 74 -5 117 24 51 35 47 38 86 -70 59 -164 160
-326 229 -369 19 -12 35 -25 35 -30 0 -4 -120 -103 -266 -220 -277 -222 -332
-278 -369 -375 -22 -57 -16 -103 24 -186 90 -180 319 -456 456 -547 45 -31 55
-33 106 -29 119 10 269 119 329 239 45 91 42 147 -15 300 -66 175 -54 187 67
73 135 -127 190 -141 314 -81 95 45 185 130 225 211 44 90 39 170 -18 310 -41
100 -41 100 -23 129 13 21 34 34 72 46 98 30 236 108 285 162 36 39 51 87 63
210 19 197 -9 397 -84 601 -19 50 -39 121 -45 157 -6 39 -23 83 -41 112 -16
27 -31 60 -32 74 -3 26 0 27 92 46 52 11 121 30 154 43 50 20 66 22 111 15 29
-5 96 -12 149 -16 l96 -7 54 -77 c30 -43 90 -113 134 -156 433 -430 1115 -506
1639 -183 95 59 290 243 360 339 305 420 332 970 72 1425 -193 337 -496 560
-869 641 -132 29 -433 26 -555 -4 -399 -99 -716 -353 -899 -719 -77 -155 -116
-302 -132 -505 l-6 -78 -88 -79 c-100 -90 -127 -99 -244 -86 -62 6 -69 10
-173 91 -59 47 -111 89 -116 93 -4 4 17 32 47 63 36 36 61 74 73 107 14 41 30
61 80 101 132 106 229 255 259 400 28 134 2 294 -77 468 -26 59 -27 64 -13 98
8 19 12 44 9 55 -10 32 -150 144 -233 188 -95 49 -202 80 -302 87 -41 3 -86 6
-100 7 -14 2 -43 1 -65 -1z m252 -138 c35 -7 91 -27 125 -42 65 -30 188 -115
188 -130 0 -11 -48 -76 -86 -118 -47 -51 -114 -99 -193 -139 -73 -36 -75 -37
-103 -20 -16 9 -47 22 -70 29 -41 11 -43 13 -65 85 -31 97 -39 198 -23 290
l12 73 77 -7 c42 -4 104 -13 138 -21z m-346 -249 c6 -43 23 -113 38 -155 27
-74 27 -75 8 -110 -13 -26 -17 -51 -15 -97 4 -70 23 -103 79 -141 29 -20 35
-31 41 -75 10 -68 76 -200 130 -262 l43 -48 -52 6 c-78 9 -256 72 -358 126
-135 71 -253 150 -261 174 -14 43 -7 280 10 351 36 151 125 272 256 349 l65
37 2 -37 c2 -21 8 -74 14 -118z m2489 -53 c0 -149 71 -234 243 -288 31 -10 57
-23 57 -29 0 -21 -69 -92 -107 -111 -24 -11 -75 -20 -135 -24 -111 -8 -145
-26 -175 -90 -22 -48 -44 -51 -130 -19 -77 29 -149 99 -158 154 -19 126 -63
184 -152 203 -112 24 -250 -36 -299 -129 -18 -36 -18 -102 1 -139 15 -28 14
-30 -12 -43 -16 -8 -66 -27 -113 -42 -100 -33 -130 -56 -130 -101 0 -45 41
-77 145 -110 l85 -28 0 -45 c0 -43 -3 -48 -89 -130 -99 -95 -118 -133 -101
-205 10 -47 33 -79 84 -120 36 -29 42 -31 128 -31 l91 0 31 -39 c95 -121 154
-150 247 -122 30 8 57 12 61 8 14 -14 51 -160 45 -176 -4 -9 -28 -26 -54 -37
-118 -49 -146 -65 -173 -96 -26 -29 -31 -31 -62 -23 -47 14 -113 12 -152 -4
-51 -21 -83 -63 -102 -133 l-17 -64 -34 33 c-43 41 -133 153 -133 164 0 5 21
18 47 28 103 43 156 122 156 236 0 128 -69 203 -216 235 -23 5 -26 8 -17 25
17 32 11 102 -13 144 -30 53 -65 77 -122 84 l-47 5 6 63 c38 374 294 741 641
921 179 92 338 131 543 132 l132 1 0 -58z m232 2 c183 -57 320 -138 455 -266
238 -228 364 -506 380 -839 12 -250 -54 -487 -192 -694 -26 -38 -61 -85 -78
-103 -28 -29 -37 -33 -77 -30 -40 3 -45 6 -48 29 -2 17 11 46 40 88 88 128 88
126 88 236 -1 162 -23 215 -91 215 -29 0 -29 1 -29 58 0 44 -6 66 -24 92 -13
19 -38 71 -57 115 -37 90 -64 120 -122 136 -50 13 -101 -4 -131 -44 -33 -45
-34 -166 -2 -287 27 -103 24 -125 -19 -136 -41 -10 -70 3 -150 69 -160 131
-200 148 -252 112 -42 -29 -54 -141 -33 -290 12 -78 27 -108 72 -135 28 -17
59 -24 197 -45 34 -6 55 -18 97 -59 45 -43 54 -58 54 -87 0 -33 -3 -35 -62
-58 -87 -34 -160 -108 -177 -179 -13 -54 -9 -108 14 -173 13 -35 12 -37 -8
-44 -54 -16 -303 -17 -393 -1 -169 29 -375 109 -473 183 -33 26 -33 26 -29 94
3 41 12 79 23 95 18 28 27 29 152 8 61 -10 87 0 106 41 14 28 30 42 75 61 215
92 235 129 177 319 -22 70 -36 98 -65 128 -43 42 -76 47 -153 21 -43 -15 -48
-14 -70 2 -13 10 -38 39 -56 66 -23 33 -49 55 -87 74 -48 23 -61 26 -119 19
-60 -6 -66 -5 -90 19 -25 25 -31 51 -17 72 4 6 35 34 68 62 72 59 99 99 114
167 24 107 -9 182 -91 207 -22 6 -39 14 -39 18 0 4 17 12 39 18 21 7 57 29 80
50 51 46 63 93 36 151 -13 30 -15 43 -6 60 28 52 160 81 194 44 8 -10 18 -40
22 -68 20 -143 161 -266 337 -296 61 -10 72 -9 105 8 24 13 45 35 62 68 l26
50 95 6 c76 4 106 11 147 32 74 38 115 78 151 146 58 107 37 176 -59 201 -68
17 -131 41 -160 61 -51 36 -80 159 -38 159 4 0 45 -12 91 -26z m-1987 -157
c76 -240 12 -443 -194 -616 -46 -39 -55 -43 -77 -33 -26 13 -32 32 -9 32 25 0
82 59 100 103 9 23 20 60 24 81 5 33 11 41 40 51 81 27 102 104 56 204 -25 54
-25 55 -8 105 10 31 16 79 16 121 -1 63 0 68 13 50 8 -11 26 -55 39 -98z
m-197 -75 l-22 -61 32 -59 c18 -33 32 -62 32 -65 0 -3 -17 -3 -39 0 -32 4 -41
2 -55 -18 -9 -13 -16 -42 -16 -64 0 -52 -25 -139 -45 -155 -10 -8 -30 -10 -59
-6 -41 7 -45 10 -67 59 -12 29 -24 73 -27 98 -4 39 0 52 28 91 20 28 34 63 37
89 5 44 6 44 79 78 41 19 89 44 107 57 17 12 33 21 35 19 1 -1 -8 -29 -20 -63z
m-322 -38 c8 -32 -3 -73 -21 -81 -39 -14 -62 62 -29 98 20 22 42 14 50 -17z
m-685 -222 c5 -53 -3 -128 -16 -149 -1 -2 -36 15 -77 36 -42 22 -101 47 -132
57 -31 10 -56 21 -56 24 0 17 257 114 270 103 2 -2 8 -34 11 -71z m-241 -179
c75 -28 137 -63 183 -102 18 -16 37 -30 44 -32 6 -2 -8 -25 -33 -53 l-45 -49
-119 58 c-129 62 -157 66 -178 20 -21 -45 -2 -66 107 -120 55 -27 101 -54 101
-60 -1 -5 -10 -21 -21 -35 l-21 -25 -71 38 c-85 44 -120 47 -143 12 -25 -39
-7 -66 73 -110 37 -20 69 -38 71 -40 6 -5 -40 -75 -49 -75 -6 0 -27 9 -49 20
-47 24 -83 26 -104 4 -35 -35 -17 -78 45 -110 27 -13 49 -26 49 -28 0 -2 -22
-50 -50 -107 -55 -117 -80 -206 -80 -294 0 -115 99 -460 185 -642 l44 -93 -34
-25 c-32 -25 -35 -25 -100 -15 -83 13 -131 30 -187 63 -89 55 -83 26 -59 284
62 650 148 1151 267 1555 5 15 9 15 57 1 29 -8 81 -26 117 -40z m432 -65 c214
-133 484 -228 646 -228 l35 0 -24 -26 c-34 -36 -59 -48 -99 -46 -147 9 -384
95 -572 208 -46 28 -59 42 -68 72 -10 38 -13 72 -6 72 3 0 42 -23 88 -52z m73
-273 c72 -35 159 -73 195 -85 78 -26 224 -59 263 -60 25 0 32 -8 63 -74 19
-41 34 -79 34 -85 0 -12 -78 -36 -169 -53 -102 -19 -104 -24 -48 -226 56 -204
67 -262 67 -367 l0 -82 -122 -22 c-167 -30 -332 -51 -339 -43 -3 4 -14 30 -23
57 -10 28 -38 96 -63 152 l-44 102 47 58 c98 119 187 280 216 386 11 41 10 48
-7 67 -20 23 -67 27 -83 7 -6 -7 -25 -46 -41 -85 -43 -107 -102 -205 -186
-310 -45 -55 -75 -102 -75 -116 0 -13 22 -70 49 -127 73 -155 122 -308 128
-398 l5 -76 -59 -56 c-63 -61 -147 -109 -187 -109 -22 0 -33 16 -90 133 -75
152 -123 286 -172 475 -55 215 -48 266 69 497 86 169 198 339 302 458 l77 88
31 -21 c18 -12 91 -50 162 -85z m3189 -147 c15 -39 35 -83 46 -98 14 -20 20
-44 20 -87 0 -70 26 -119 67 -129 15 -3 34 -7 41 -10 8 -2 12 -28 12 -85 0
-81 -1 -83 -41 -136 -118 -156 -125 -265 -22 -325 l35 -21 -23 -19 c-100 -81
-303 -191 -393 -214 -23 -5 -26 -2 -40 47 -35 115 -15 151 114 204 50 21 98
48 106 59 8 12 14 45 14 81 0 81 -34 150 -103 209 -72 60 -101 73 -201 87 -47
7 -93 17 -101 23 -10 8 -17 40 -22 106 l-6 94 44 -37 c91 -78 147 -117 188
-132 87 -31 152 -14 214 54 48 53 51 97 16 219 -23 82 -26 194 -5 186 8 -3 26
-37 40 -76z m-1751 -49 c16 -26 0 -66 -44 -108 -28 -27 -41 -48 -41 -66 0 -48
21 -58 129 -60 145 -2 187 -29 187 -121 0 -104 -75 -144 -273 -144 -64 0 -132
3 -151 6 l-35 6 3 73 c3 44 -3 107 -13 161 l-18 88 44 40 c100 89 174 146 188
144 7 -2 18 -10 24 -19z m-604 -226 c20 -4 82 -8 138 -8 93 0 102 -2 107 -20
12 -42 18 -155 12 -199 l-7 -45 -77 -25 c-107 -34 -183 -47 -187 -32 -2 6 -9
37 -15 68 -11 54 -78 281 -95 322 -6 14 5 10 39 -17 27 -20 65 -40 85 -44z
m-213 -45 c7 -20 21 -68 33 -108 l20 -72 -54 -24 c-30 -14 -69 -28 -87 -31
l-34 -5 -28 103 c-16 56 -29 109 -30 117 -1 9 24 22 74 37 41 12 79 22 84 21
5 -1 15 -18 22 -38z m87 -340 c19 -110 19 -125 0 -133 -47 -19 -158 -55 -170
-55 -10 0 -13 21 -13 83 l0 82 78 26 c101 34 99 34 105 -3z m87 -279 c13 -49
17 -46 -86 -89 -131 -54 -481 -142 -661 -165 l-52 -7 -5 34 c-3 18 -7 46 -8
62 l-3 29 155 23 c213 31 381 68 513 113 62 21 117 39 124 39 7 1 17 -17 23
-39z m73 -251 c15 -46 35 -120 44 -165 14 -70 14 -86 2 -115 -21 -51 -79 -109
-134 -134 l-50 -24 -13 148 c-8 91 -19 156 -28 170 -18 28 -64 29 -89 2 -16
-18 -17 -29 -5 -162 6 -79 10 -179 8 -223 l-3 -79 -45 -14 c-60 -18 -253 -10
-339 15 l-64 18 -13 60 c-17 81 -17 85 6 85 83 0 163 116 140 201 -10 35 -60
90 -92 101 -22 9 -8 13 127 42 162 35 339 86 430 124 39 17 75 30 81 31 6 1
23 -36 37 -81z m-803 -184 c55 -31 103 -60 105 -64 2 -4 -3 -16 -11 -28 -18
-26 -62 -29 -120 -8 -47 16 -80 7 -95 -28 -10 -22 -7 -32 19 -73 59 -91 77
-177 47 -220 -8 -12 -35 -29 -59 -38 -36 -14 -51 -15 -79 -6 -53 18 -119 96
-172 205 -47 95 -51 126 -19 126 33 0 141 67 204 127 36 34 68 62 72 63 4 0
53 -25 108 -56z m865 -311 c-2 -16 -7 -49 -10 -75 -8 -64 -38 -97 -134 -147
-43 -22 -81 -41 -84 -41 -3 0 -1 17 3 38 5 20 11 65 15 99 7 59 8 62 38 69 38
8 143 59 152 74 12 20 24 10 20 -17z m-690 -213 c82 -18 122 -21 221 -18 l122
5 -15 -51 c-21 -71 -78 -150 -173 -240 l-83 -77 -46 6 c-87 12 -166 35 -238
70 -72 36 -163 112 -163 138 0 15 99 95 183 148 26 17 47 35 47 41 0 6 10 8
23 5 12 -3 67 -15 122 -27z m-326 -379 c34 -21 96 -51 138 -66 43 -15 87 -30
98 -34 16 -6 1 -20 -85 -77 -58 -39 -141 -92 -184 -119 l-79 -49 -71 75 c-69
73 -143 195 -149 245 -1 16 20 39 87 93 l89 71 47 -50 c27 -27 76 -67 109 -89z
m631 -33 c47 -108 44 -175 -9 -239 l-28 -33 -44 26 c-48 29 -157 123 -149 130
86 67 150 122 169 142 14 14 28 26 32 26 3 0 17 -24 29 -52z m-1035 -132 c43
-88 122 -186 205 -255 70 -58 95 -63 155 -26 l39 24 32 -79 c59 -145 61 -195
12 -266 -17 -26 -28 -32 -43 -27 -99 30 -415 381 -504 558 -18 37 -31 68 -29
70 6 6 93 75 95 75 1 0 18 -33 38 -74z m858 -194 c36 -22 34 -29 -13 -43 -44
-13 -52 -9 -155 85 l-50 46 29 24 29 24 66 -59 c36 -33 78 -68 94 -77z m-992
-56 c112 -169 299 -374 402 -441 36 -23 34 -31 -8 -45 -30 -10 -40 -9 -68 9
-79 49 -290 292 -381 441 -52 83 -62 119 -45 152 12 22 13 22 23 4 6 -11 41
-65 77 -120z"/>
<path d="M4436 4146 c-104 -39 -163 -161 -121 -249 23 -48 204 -231 250 -252
52 -25 122 -26 159 -2 44 29 70 99 62 166 -11 101 -124 289 -196 326 -44 23
-109 27 -154 11z m124 -146 c50 -54 99 -147 106 -203 8 -54 -4 -64 -50 -42
-40 19 -196 187 -196 211 0 23 55 74 81 74 13 0 37 -16 59 -40z"/>
<path d="M2749 4919 c-17 -17 -20 -28 -14 -68 l6 -48 -40 -7 c-46 -7 -71 -28
-71 -60 0 -42 22 -58 80 -60 l55 -1 6 -39 c10 -61 51 -82 98 -50 21 15 23 22
18 69 l-5 53 43 6 c52 8 67 24 63 68 -4 42 -34 58 -88 48 l-40 -7 -7 40 c-11
71 -62 98 -104 56z"/>
<path d="M4453 1865 c-18 -13 -22 -27 -25 -102 -2 -59 -10 -101 -22 -125 -23
-47 -85 -94 -150 -113 -58 -18 -86 -40 -86 -70 0 -39 33 -58 96 -56 85 3 155
-21 197 -68 30 -33 77 -132 77 -161 0 -12 34 -30 57 -30 43 0 53 21 56 110 5
136 49 198 172 240 72 25 85 35 85 70 0 45 -27 60 -109 60 -80 0 -131 17 -175
58 -30 29 -76 115 -76 145 0 22 -35 57 -58 57 -10 0 -27 -7 -39 -15z m155
-323 c29 -17 31 -21 17 -32 -9 -7 -28 -33 -42 -57 l-26 -44 -26 24 c-14 13
-38 32 -53 42 l-27 17 34 50 c19 28 35 55 35 61 0 6 12 -1 28 -15 15 -14 42
-35 60 -46z"/>
<path d="M2685 1456 c-12 -17 -14 -35 -9 -61 7 -41 -4 -55 -43 -55 -30 0 -63
-34 -63 -63 0 -41 32 -61 88 -53 l49 6 6 -40 c7 -51 22 -70 58 -70 44 0 62 26
57 81 -5 47 -4 48 26 54 56 12 63 15 74 40 15 32 1 71 -28 80 -11 4 -38 4 -59
0 -38 -6 -39 -6 -46 32 -4 21 -14 46 -22 56 -24 25 -69 22 -88 -7z"/>
<path d="M3432 735 c-15 -19 -18 -35 -15 -68 l5 -44 -40 -7 c-68 -10 -93 -68
-47 -104 19 -15 35 -18 68 -15 l44 5 7 -40 c10 -68 68 -93 104 -47 15 19 18
35 15 68 l-5 44 40 7 c68 10 93 68 47 104 -19 15 -35 18 -68 15 l-44 -5 -7 40
c-10 68 -68 93 -104 47z"/>
</g>
</svg>
